# xmcd CD database file
#
# Track frame offsets:
#	150
#	19670
#	44304
#	63750
#	83800
#	103452
#	123882
#	142050
#	165760
#	185670
#	206052
#	225780
#	246968
#
# Disc length: 3487 seconds
#
# Revision: 2
# Processed by: cddbd v1.5.1PL0 Copyright (c) Steve Scherf et al.
# Submitted via: CDex 1.51
#
DISCID=a70d9d0d
DTITLE=BoA - VALENTI
DYEAR=2003
DGENRE=Pop
TTITLE0=VALENTI
TTITLE1=JEWEL SONG
TTITLE2=B.I.O
TTITLE3=世界の片隅で
TTITLE4=奇蹟
TTITLE5=WINDING ROAD featuring DABO
TTITLE6=Searching for truth
TTITLE7=Moon and Sunrise
TTITLE8=Discovery
TTITLE9=flower
TTITLE10=BESIDE YOU-僕を呼ぶ声-
TTITLE11=Feel the same
TTITLE12=NO.1
EXTD=YEAR: 2003
EXTT0=
EXTT1=
EXTT2=
EXTT3=
EXTT4=
EXTT5=
EXTT6=
EXTT7=
EXTT8=
EXTT9=
EXTT10=
EXTT11=
EXTT12=
PLAYORDER=
